<svg width="18" height="18" fill="none" xmlns="http://www.w3.org/2000/svg">
  <path d="m13.996 11.1226-1.8381-.2099c-.4415-.0506-.8757.1014-1.1869.4125l-1.33155 1.3316c-2.04801-1.0421-3.72694-2.71379-4.76904-4.76905l1.33881-1.33881c.31118-.31119.46315-.74539.41249-1.18684l-.20986-1.82368C6.325 2.8075 5.70988 2.2575 4.97173 2.2575H3.71976c-.81776 0-1.49801.68026-1.44736 1.49802.38355 6.18025 5.32628 11.11578 11.4993 11.49928.8177.0507 1.498-.6296 1.498-1.4473v-1.252c.0072-.7309-.5428-1.346-1.2737-1.4329Z" fill="#212121"/>
</svg>
